<?xml version="1.0" encoding="UTF-8"?>
<svg id="Layer_1" xmlns="http://www.w3.org/2000/svg" version="1.1" viewBox="0 0 238.62 44.34">
  <!-- Generator: Adobe Illustrator 30.0.0, SVG Export Plug-In . SVG Version: 2.1.1 Build 123)  -->
  <g>
    <path d="M20.94,11.94c7.92,0,11.04,4.44,11.04,10.44v14.88c0,4.56-1.2,6.36-6.54,6.36h-14.82c-7.5,0-10.62-3.66-10.62-9.66s2.88-9.12,10.68-9.12h15.06v-2.4c0-2.46-1.38-4.38-4.86-4.38H1.92v-6.12h19.02ZM25.74,35.82v-5.94h-14.94c-3.36,0-4.56,1.38-4.56,3.72s1.26,3.84,4.44,3.84h13.32c1.26,0,1.74-.48,1.74-1.62Z"/>
    <path d="M47.22,11.94v18.96c0,3.72,2.76,6.54,7.8,6.54h5.16c5.04,0,7.74-2.82,7.74-6.54V11.94h6.24v19.2c0,7.32-4.68,12.48-13.74,12.48h-5.88c-9.06,0-13.74-5.16-13.74-12.48V11.94h6.42Z"/>
    <path d="M86.4,11.94l10.56,25.44c.24.66.78.96,1.56.96.84,0,1.38-.3,1.68-.96l10.98-25.44h6.84l-12.24,28.26c-1.32,3-3.66,4.14-7.26,4.14s-6-1.2-7.2-4.14l-11.64-28.26h6.72Z"/>
    <path d="M144,11.94c7.92,0,11.04,4.44,11.04,10.44v14.88c0,4.56-1.2,6.36-6.54,6.36h-14.82c-7.5,0-10.62-3.66-10.62-9.66s2.88-9.12,10.68-9.12h15.06v-2.4c0-2.46-1.38-4.38-4.86-4.38h-18.96v-6.12h19.02ZM148.8,35.82v-5.94h-14.94c-3.36,0-4.56,1.38-4.56,3.72s1.26,3.84,4.44,3.84h13.32c1.26,0,1.74-.48,1.74-1.62Z"/>
    <path d="M185.58,11.94v6.12h-11.16c-2.82,0-4.08,1.32-4.08,4.08v21.48h-6.36v-22.44c0-6.36,2.34-9.24,8.58-9.24h13.02Z"/>
    <path d="M198.24,0v7.38h-6.42V0h6.42ZM198.18,11.94v31.68h-6.36V11.94h6.36Z"/>
    <path d="M227.58,11.94c7.92,0,11.04,4.44,11.04,10.44v14.88c0,4.56-1.2,6.36-6.54,6.36h-14.82c-7.5,0-10.62-3.66-10.62-9.66s2.88-9.12,10.68-9.12h15.06v-2.4c0-2.46-1.38-4.38-4.86-4.38h-18.96v-6.12h19.02ZM232.38,35.82v-5.94h-14.94c-3.36,0-4.56,1.38-4.56,3.72s1.26,3.84,4.44,3.84h13.32c1.26,0,1.74-.48,1.74-1.62Z"/>
  </g>
  <text/>
</svg>