<?xml version="1.0" encoding="UTF-8"?>
<svg id="Layer_1" data-name="Layer 1" xmlns="http://www.w3.org/2000/svg" viewBox="0 0 111.04 111.04">
  <path d="M55.52,0C24.86,0,0,24.86,0,55.52s24.86,55.52,55.52,55.52,55.52-24.86,55.52-55.52S86.19,0,55.52,0ZM88.29,79.78c-.74,6.09-5.28,8-10.83,8.54-8.28.82-36.18.94-43.24-1.45-14.51-4.91-16.07-28.78-3.08-35.19,2.65-1.31,9.23-2.85,12.05-2.85h31.66c.77-3.99-.2-12.67-5.59-12.67H26.43v-13.41h44.33c7.89,0,16.26,8.51,17.32,16.21,1.13,8.24,1.21,32.52.21,40.8Z"/>
  <path d="M74.86,60.02v13.78l-1.12,1.12h-32.78c-.84,0-3.85-2.87-4.28-3.92-1.86-4.57.47-10.98,5.77-10.98h32.41Z"/>
</svg>
